<svg width="500" height="500" viewBox="0 0 500 500" fill="none" xmlns="http://www.w3.org/2000/svg">
<rect x="0.00012207" width="500" height="500" rx="50" fill="#A7EBCC"/>
<path d="M25.9237 308V296.866L70.2007 234.739H25.837V219.273H93.7689V230.407L49.4485 292.533H93.8555V308H25.9237ZM108.25 308V219.273H127.009V258.394H128.179L160.109 219.273H182.594L149.667 259.001L182.984 308H160.542L136.237 271.521L127.009 282.786V308H108.25ZM239.781 244.79C239.435 241.296 237.947 238.581 235.319 236.646C232.69 234.71 229.123 233.743 224.618 233.743C221.556 233.743 218.971 234.176 216.863 235.043C214.754 235.88 213.137 237.05 212.011 238.552C210.913 240.054 210.364 241.758 210.364 243.664C210.306 245.253 210.639 246.639 211.361 247.823C212.112 249.007 213.137 250.033 214.437 250.899C215.736 251.737 217.238 252.473 218.942 253.109C220.646 253.715 222.466 254.235 224.401 254.668L232.373 256.575C236.243 257.441 239.796 258.596 243.03 260.04C246.265 261.485 249.067 263.261 251.435 265.369C253.804 267.478 255.638 269.962 256.937 272.821C258.266 275.68 258.945 278.959 258.974 282.656C258.945 288.085 257.558 292.793 254.815 296.779C252.1 300.736 248.172 303.812 243.03 306.007C237.918 308.173 231.752 309.256 224.531 309.256C217.368 309.256 211.13 308.159 205.815 305.964C200.53 303.769 196.4 300.519 193.425 296.216C190.479 291.884 188.933 286.526 188.789 280.143H206.942C207.144 283.118 207.996 285.602 209.498 287.594C211.029 289.558 213.065 291.046 215.606 292.057C218.177 293.039 221.08 293.53 224.315 293.53C227.492 293.53 230.25 293.068 232.589 292.143C234.958 291.219 236.792 289.934 238.092 288.288C239.391 286.641 240.041 284.75 240.041 282.612C240.041 280.619 239.449 278.944 238.265 277.587C237.109 276.229 235.405 275.074 233.153 274.121C230.929 273.168 228.199 272.301 224.964 271.521L215.303 269.095C207.823 267.276 201.916 264.431 197.584 260.56C193.251 256.69 191.1 251.477 191.128 244.92C191.1 239.548 192.529 234.855 195.417 230.84C198.335 226.826 202.335 223.692 207.418 221.439C212.502 219.186 218.278 218.06 224.748 218.06C231.333 218.06 237.081 219.186 241.991 221.439C246.93 223.692 250.771 226.826 253.515 230.84C256.259 234.855 257.674 239.505 257.761 244.79H239.781ZM289.701 219.273V308H271.245V219.273H289.701ZM304.485 308V241.455H322.941V308H304.485ZM313.757 232.876C311.013 232.876 308.659 231.967 306.695 230.147C304.76 228.299 303.792 226.089 303.792 223.518C303.792 220.977 304.76 218.796 306.695 216.977C308.659 215.128 311.013 214.204 313.757 214.204C316.5 214.204 318.84 215.128 320.775 216.977C322.739 218.796 323.721 220.977 323.721 223.518C323.721 226.089 322.739 228.299 320.775 230.147C318.84 231.967 316.5 232.876 313.757 232.876ZM362.247 309.083C357.192 309.083 352.615 307.783 348.513 305.184C344.441 302.556 341.206 298.7 338.809 293.616C336.44 288.504 335.256 282.237 335.256 274.814C335.256 267.189 336.484 260.849 338.939 255.795C341.394 250.711 344.657 246.913 348.73 244.401C352.831 241.859 357.322 240.588 362.204 240.588C365.929 240.588 369.034 241.223 371.518 242.494C374.031 243.736 376.053 245.296 377.584 247.173C379.143 249.022 380.327 250.841 381.136 252.632H381.699V219.273H400.112V308H381.916V297.342H381.136C380.27 299.191 379.042 301.025 377.454 302.844C375.894 304.635 373.858 306.123 371.345 307.307C368.861 308.491 365.828 309.083 362.247 309.083ZM368.096 294.396C371.071 294.396 373.583 293.588 375.634 291.97C377.714 290.324 379.302 288.028 380.4 285.082C381.526 282.136 382.089 278.684 382.089 274.727C382.089 270.77 381.54 267.333 380.443 264.416C379.345 261.499 377.757 259.246 375.677 257.658C373.598 256.069 371.071 255.275 368.096 255.275C365.063 255.275 362.507 256.098 360.427 257.744C358.348 259.391 356.774 261.672 355.705 264.589C354.636 267.507 354.102 270.886 354.102 274.727C354.102 278.598 354.636 282.02 355.705 284.995C356.803 287.941 358.377 290.252 360.427 291.927C362.507 293.573 365.063 294.396 368.096 294.396ZM445.613 309.3C438.768 309.3 432.876 307.913 427.937 305.141C423.027 302.339 419.243 298.382 416.586 293.27C413.929 288.129 412.6 282.049 412.6 275.031C412.6 268.185 413.929 262.178 416.586 257.008C419.243 251.838 422.983 247.809 427.807 244.92C432.659 242.032 438.349 240.588 444.876 240.588C449.266 240.588 453.353 241.296 457.137 242.711C460.949 244.097 464.271 246.191 467.101 248.993C469.961 251.795 472.185 255.318 473.773 259.564C475.362 263.781 476.156 268.72 476.156 274.381V279.45H419.965V268.012H458.783C458.783 265.355 458.206 263.001 457.05 260.95C455.895 258.9 454.292 257.297 452.241 256.141C450.22 254.957 447.866 254.365 445.18 254.365C442.378 254.365 439.894 255.015 437.728 256.315C435.591 257.585 433.915 259.304 432.702 261.47C431.489 263.607 430.868 265.99 430.839 268.619V279.493C430.839 282.786 431.446 285.63 432.659 288.028C433.901 290.425 435.648 292.273 437.901 293.573C440.154 294.873 442.826 295.523 445.916 295.523C447.967 295.523 449.844 295.234 451.548 294.656C453.252 294.079 454.711 293.212 455.924 292.057C457.137 290.902 458.061 289.486 458.697 287.811L475.766 288.938C474.9 293.039 473.123 296.62 470.437 299.682C467.78 302.715 464.343 305.083 460.126 306.787C455.938 308.462 451.101 309.3 445.613 309.3Z" fill="white"/>
</svg>
